<?xml version="1.0" encoding="utf-8" standalone="no"?>
<!DOCTYPE svg PUBLIC "-//W3C//DTD SVG 1.1//EN"
  "http://www.w3.org/Graphics/SVG/1.1/DTD/svg11.dtd">
<svg xmlns:xlink="http://www.w3.org/1999/xlink" width="722.671875pt" height="486.214531pt" viewBox="0 0 722.671875 486.214531" xmlns="http://www.w3.org/2000/svg" version="1.1">
 <metadata>
  <rdf:RDF xmlns:dc="http://purl.org/dc/elements/1.1/" xmlns:cc="http://creativecommons.org/ns#" xmlns:rdf="http://www.w3.org/1999/02/22-rdf-syntax-ns#">
   <cc:Work>
    <dc:type rdf:resource="http://purl.org/dc/dcmitype/StillImage"/>
    <dc:date>2022-09-22T15:36:49.675399</dc:date>
    <dc:format>image/svg+xml</dc:format>
    <dc:creator>
     <cc:Agent>
      <dc:title>Matplotlib v3.5.2, https://matplotlib.org/</dc:title>
     </cc:Agent>
    </dc:creator>
   </cc:Work>
  </rdf:RDF>
 </metadata>
 <defs>
  <style type="text/css">*{stroke-linejoin: round; stroke-linecap: butt}</style>
 </defs>
 <g id="figure_1">
  <g id="patch_1">
   <path d="M 0 486.214531 
L 722.671875 486.214531 
L 722.671875 0 
L 0 0 
z
" style="fill: #ffffff"/>
  </g>
  <g id="axes_1">
   <g id="patch_2">
    <path d="M 41.520313 450.919219 
L 711.120313 450.919219 
L 711.120313 7.399219 
L 41.520313 7.399219 
z
" style="fill: #ffffff"/>
   </g>
   <g id="PathCollection_1">
    <defs>
     <path id="m8281d5c771" d="M 0 4.472136 
C 1.186024 4.472136 2.323632 4.000923 3.162278 3.162278 
C 4.000923 2.323632 4.472136 1.186024 4.472136 0 
C 4.472136 -1.186024 4.000923 -2.323632 3.162278 -3.162278 
C 2.323632 -4.000923 1.186024 -4.472136 0 -4.472136 
C -1.186024 -4.472136 -2.323632 -4.000923 -3.162278 -3.162278 
C -4.000923 -2.323632 -4.472136 -1.186024 -4.472136 0 
C -4.472136 1.186024 -4.000923 2.323632 -3.162278 3.162278 
C -2.323632 4.000923 -1.186024 4.472136 0 4.472136 
z
" style="stroke: #0000ff; stroke-opacity: 0.4"/>
    </defs>
    <g clip-path="url(#p50164dac6f)">
     <use xlink:href="#m8281d5c771" x="218.964313" y="386.946337" style="fill: #0000ff; fill-opacity: 0.4; stroke: #0000ff; stroke-opacity: 0.4"/>
     <use xlink:href="#m8281d5c771" x="359.580312" y="259.187297" style="fill: #0000ff; fill-opacity: 0.4; stroke: #0000ff; stroke-opacity: 0.4"/>
     <use xlink:href="#m8281d5c771" x="386.364312" y="225.92995" style="fill: #0000ff; fill-opacity: 0.4; stroke: #0000ff; stroke-opacity: 0.4"/>
     <use xlink:href="#m8281d5c771" x="165.396313" y="418.26018" style="fill: #0000ff; fill-opacity: 0.4; stroke: #0000ff; stroke-opacity: 0.4"/>
     <use xlink:href="#m8281d5c771" x="366.276313" y="274.105536" style="fill: #0000ff; fill-opacity: 0.4; stroke: #0000ff; stroke-opacity: 0.4"/>
     <use xlink:href="#m8281d5c771" x="366.276313" y="247.540462" style="fill: #0000ff; fill-opacity: 0.4; stroke: #0000ff; stroke-opacity: 0.4"/>
     <use xlink:href="#m8281d5c771" x="379.668313" y="243.943071" style="fill: #0000ff; fill-opacity: 0.4; stroke: #0000ff; stroke-opacity: 0.4"/>
     <use xlink:href="#m8281d5c771" x="339.492313" y="263.516496" style="fill: #0000ff; fill-opacity: 0.4; stroke: #0000ff; stroke-opacity: 0.4"/>
     <use xlink:href="#m8281d5c771" x="118.524313" y="438.469612" style="fill: #0000ff; fill-opacity: 0.4; stroke: #0000ff; stroke-opacity: 0.4"/>
     <use xlink:href="#m8281d5c771" x="105.132313" y="443.68319" style="fill: #0000ff; fill-opacity: 0.4; stroke: #0000ff; stroke-opacity: 0.4"/>
     <use xlink:href="#m8281d5c771" x="279.228313" y="314.694712" style="fill: #0000ff; fill-opacity: 0.4; stroke: #0000ff; stroke-opacity: 0.4"/>
     <use xlink:href="#m8281d5c771" x="433.236313" y="180.298838" style="fill: #0000ff; fill-opacity: 0.4; stroke: #0000ff; stroke-opacity: 0.4"/>
     <use xlink:href="#m8281d5c771" x="319.404313" y="283.94414" style="fill: #0000ff; fill-opacity: 0.4; stroke: #0000ff; stroke-opacity: 0.4"/>
     <use xlink:href="#m8281d5c771" x="352.884313" y="257.017153" style="fill: #0000ff; fill-opacity: 0.4; stroke: #0000ff; stroke-opacity: 0.4"/>
     <use xlink:href="#m8281d5c771" x="265.836313" y="340.18425" style="fill: #0000ff; fill-opacity: 0.4; stroke: #0000ff; stroke-opacity: 0.4"/>
     <use xlink:href="#m8281d5c771" x="306.012313" y="310.912817" style="fill: #0000ff; fill-opacity: 0.4; stroke: #0000ff; stroke-opacity: 0.4"/>
     <use xlink:href="#m8281d5c771" x="306.012313" y="318.990203" style="fill: #0000ff; fill-opacity: 0.4; stroke: #0000ff; stroke-opacity: 0.4"/>
     <use xlink:href="#m8281d5c771" x="326.100312" y="301.79582" style="fill: #0000ff; fill-opacity: 0.4; stroke: #0000ff; stroke-opacity: 0.4"/>
     <use xlink:href="#m8281d5c771" x="91.740313" y="446.402411" style="fill: #0000ff; fill-opacity: 0.4; stroke: #0000ff; stroke-opacity: 0.4"/>
     <use xlink:href="#m8281d5c771" x="326.100312" y="301.057359" style="fill: #0000ff; fill-opacity: 0.4; stroke: #0000ff; stroke-opacity: 0.4"/>
     <use xlink:href="#m8281d5c771" x="506.892313" y="114.271572" style="fill: #0000ff; fill-opacity: 0.4; stroke: #0000ff; stroke-opacity: 0.4"/>
     <use xlink:href="#m8281d5c771" x="91.740313" y="445.762855" style="fill: #0000ff; fill-opacity: 0.4; stroke: #0000ff; stroke-opacity: 0.4"/>
     <use xlink:href="#m8281d5c771" x="105.132313" y="442.37658" style="fill: #0000ff; fill-opacity: 0.4; stroke: #0000ff; stroke-opacity: 0.4"/>
     <use xlink:href="#m8281d5c771" x="105.132313" y="442.32868" style="fill: #0000ff; fill-opacity: 0.4; stroke: #0000ff; stroke-opacity: 0.4"/>
     <use xlink:href="#m8281d5c771" x="98.436313" y="444.67224" style="fill: #0000ff; fill-opacity: 0.4; stroke: #0000ff; stroke-opacity: 0.4"/>
     <use xlink:href="#m8281d5c771" x="232.356313" y="383.289515" style="fill: #0000ff; fill-opacity: 0.4; stroke: #0000ff; stroke-opacity: 0.4"/>
     <use xlink:href="#m8281d5c771" x="239.052312" y="366.972414" style="fill: #0000ff; fill-opacity: 0.4; stroke: #0000ff; stroke-opacity: 0.4"/>
     <use xlink:href="#m8281d5c771" x="279.228313" y="317.863219" style="fill: #0000ff; fill-opacity: 0.4; stroke: #0000ff; stroke-opacity: 0.4"/>
     <use xlink:href="#m8281d5c771" x="111.828313" y="440.586533" style="fill: #0000ff; fill-opacity: 0.4; stroke: #0000ff; stroke-opacity: 0.4"/>
     <use xlink:href="#m8281d5c771" x="205.572313" y="396.305497" style="fill: #0000ff; fill-opacity: 0.4; stroke: #0000ff; stroke-opacity: 0.4"/>
     <use xlink:href="#m8281d5c771" x="172.092313" y="414.421958" style="fill: #0000ff; fill-opacity: 0.4; stroke: #0000ff; stroke-opacity: 0.4"/>
     <use xlink:href="#m8281d5c771" x="439.932312" y="179.088915" style="fill: #0000ff; fill-opacity: 0.4; stroke: #0000ff; stroke-opacity: 0.4"/>
     <use xlink:href="#m8281d5c771" x="239.052312" y="371.954031" style="fill: #0000ff; fill-opacity: 0.4; stroke: #0000ff; stroke-opacity: 0.4"/>
     <use xlink:href="#m8281d5c771" x="91.740313" y="446.052917" style="fill: #0000ff; fill-opacity: 0.4; stroke: #0000ff; stroke-opacity: 0.4"/>
     <use xlink:href="#m8281d5c771" x="158.700312" y="424.630901" style="fill: #0000ff; fill-opacity: 0.4; stroke: #0000ff; stroke-opacity: 0.4"/>
     <use xlink:href="#m8281d5c771" x="125.220313" y="436.094563" style="fill: #0000ff; fill-opacity: 0.4; stroke: #0000ff; stroke-opacity: 0.4"/>
     <use xlink:href="#m8281d5c771" x="98.436313" y="443.501347" style="fill: #0000ff; fill-opacity: 0.4; stroke: #0000ff; stroke-opacity: 0.4"/>
     <use xlink:href="#m8281d5c771" x="125.220313" y="437.499634" style="fill: #0000ff; fill-opacity: 0.4; stroke: #0000ff; stroke-opacity: 0.4"/>
     <use xlink:href="#m8281d5c771" x="105.132313" y="442.182762" style="fill: #0000ff; fill-opacity: 0.4; stroke: #0000ff; stroke-opacity: 0.4"/>
     <use xlink:href="#m8281d5c771" x="105.132313" y="443.004604" style="fill: #0000ff; fill-opacity: 0.4; stroke: #0000ff; stroke-opacity: 0.4"/>
     <use xlink:href="#m8281d5c771" x="111.828313" y="441.482444" style="fill: #0000ff; fill-opacity: 0.4; stroke: #0000ff; stroke-opacity: 0.4"/>
     <use xlink:href="#m8281d5c771" x="125.220313" y="436.377529" style="fill: #0000ff; fill-opacity: 0.4; stroke: #0000ff; stroke-opacity: 0.4"/>
     <use xlink:href="#m8281d5c771" x="172.092313" y="416.831602" style="fill: #0000ff; fill-opacity: 0.4; stroke: #0000ff; stroke-opacity: 0.4"/>
     <use xlink:href="#m8281d5c771" x="285.924313" y="329.722944" style="fill: #0000ff; fill-opacity: 0.4; stroke: #0000ff; stroke-opacity: 0.4"/>
     <use xlink:href="#m8281d5c771" x="252.444313" y="359.156261" style="fill: #0000ff; fill-opacity: 0.4; stroke: #0000ff; stroke-opacity: 0.4"/>
     <use xlink:href="#m8281d5c771" x="131.916313" y="433.666734" style="fill: #0000ff; fill-opacity: 0.4; stroke: #0000ff; stroke-opacity: 0.4"/>
     <use xlink:href="#m8281d5c771" x="419.844313" y="200.63423" style="fill: #0000ff; fill-opacity: 0.4; stroke: #0000ff; stroke-opacity: 0.4"/>
     <use xlink:href="#m8281d5c771" x="218.964313" y="389.34312" style="fill: #0000ff; fill-opacity: 0.4; stroke: #0000ff; stroke-opacity: 0.4"/>
     <use xlink:href="#m8281d5c771" x="326.100312" y="298.855282" style="fill: #0000ff; fill-opacity: 0.4; stroke: #0000ff; stroke-opacity: 0.4"/>
     <use xlink:href="#m8281d5c771" x="352.884313" y="273.511219" style="fill: #0000ff; fill-opacity: 0.4; stroke: #0000ff; stroke-opacity: 0.4"/>
     <use xlink:href="#m8281d5c771" x="125.220313" y="437.551526" style="fill: #0000ff; fill-opacity: 0.4; stroke: #0000ff; stroke-opacity: 0.4"/>
     <use xlink:href="#m8281d5c771" x="312.708313" y="300.77528" style="fill: #0000ff; fill-opacity: 0.4; stroke: #0000ff; stroke-opacity: 0.4"/>
     <use xlink:href="#m8281d5c771" x="118.524313" y="439.921697" style="fill: #0000ff; fill-opacity: 0.4; stroke: #0000ff; stroke-opacity: 0.4"/>
     <use xlink:href="#m8281d5c771" x="118.524313" y="439.921697" style="fill: #0000ff; fill-opacity: 0.4; stroke: #0000ff; stroke-opacity: 0.4"/>
    </g>
   </g>
   <g id="PathCollection_2">
    <defs>
     <path id="mfe13866861" d="M 0 4.472136 
C 1.186024 4.472136 2.323632 4.000923 3.162278 3.162278 
C 4.000923 2.323632 4.472136 1.186024 4.472136 0 
C 4.472136 -1.186024 4.000923 -2.323632 3.162278 -3.162278 
C 2.323632 -4.000923 1.186024 -4.472136 0 -4.472136 
C -1.186024 -4.472136 -2.323632 -4.000923 -3.162278 -3.162278 
C -4.000923 -2.323632 -4.472136 -1.186024 -4.472136 0 
C -4.472136 1.186024 -4.000923 2.323632 -3.162278 3.162278 
C -2.323632 4.000923 -1.186024 4.472136 0 4.472136 
z
" style="stroke: #ff0000; stroke-opacity: 0.4"/>
    </defs>
    <g clip-path="url(#p50164dac6f)">
     <use xlink:href="#mfe13866861" x="98.436313" y="444.383952" style="fill: #ff0000; fill-opacity: 0.4; stroke: #ff0000; stroke-opacity: 0.4"/>
     <use xlink:href="#mfe13866861" x="312.708313" y="307.075038" style="fill: #ff0000; fill-opacity: 0.4; stroke: #ff0000; stroke-opacity: 0.4"/>
     <use xlink:href="#mfe13866861" x="78.348313" y="447.809257" style="fill: #ff0000; fill-opacity: 0.4; stroke: #ff0000; stroke-opacity: 0.4"/>
     <use xlink:href="#mfe13866861" x="185.484313" y="404.101691" style="fill: #ff0000; fill-opacity: 0.4; stroke: #ff0000; stroke-opacity: 0.4"/>
     <use xlink:href="#mfe13866861" x="185.484313" y="404.477353" style="fill: #ff0000; fill-opacity: 0.4; stroke: #ff0000; stroke-opacity: 0.4"/>
     <use xlink:href="#mfe13866861" x="118.524313" y="438.90781" style="fill: #ff0000; fill-opacity: 0.4; stroke: #ff0000; stroke-opacity: 0.4"/>
     <use xlink:href="#mfe13866861" x="172.092313" y="412.426561" style="fill: #ff0000; fill-opacity: 0.4; stroke: #ff0000; stroke-opacity: 0.4"/>
     <use xlink:href="#mfe13866861" x="178.788313" y="405.866457" style="fill: #ff0000; fill-opacity: 0.4; stroke: #ff0000; stroke-opacity: 0.4"/>
     <use xlink:href="#mfe13866861" x="198.876313" y="396.555198" style="fill: #ff0000; fill-opacity: 0.4; stroke: #ff0000; stroke-opacity: 0.4"/>
     <use xlink:href="#mfe13866861" x="185.484313" y="403.736231" style="fill: #ff0000; fill-opacity: 0.4; stroke: #ff0000; stroke-opacity: 0.4"/>
     <use xlink:href="#mfe13866861" x="198.876313" y="394.52299" style="fill: #ff0000; fill-opacity: 0.4; stroke: #ff0000; stroke-opacity: 0.4"/>
     <use xlink:href="#mfe13866861" x="125.220313" y="437.223321" style="fill: #ff0000; fill-opacity: 0.4; stroke: #ff0000; stroke-opacity: 0.4"/>
     <use xlink:href="#mfe13866861" x="399.756313" y="229.159219" style="fill: #ff0000; fill-opacity: 0.4; stroke: #ff0000; stroke-opacity: 0.4"/>
     <use xlink:href="#mfe13866861" x="239.052312" y="366.400717" style="fill: #ff0000; fill-opacity: 0.4; stroke: #ff0000; stroke-opacity: 0.4"/>
     <use xlink:href="#mfe13866861" x="292.620313" y="303.122388" style="fill: #ff0000; fill-opacity: 0.4; stroke: #ff0000; stroke-opacity: 0.4"/>
     <use xlink:href="#mfe13866861" x="118.524313" y="438.469612" style="fill: #ff0000; fill-opacity: 0.4; stroke: #ff0000; stroke-opacity: 0.4"/>
     <use xlink:href="#mfe13866861" x="192.180313" y="403.399155" style="fill: #ff0000; fill-opacity: 0.4; stroke: #ff0000; stroke-opacity: 0.4"/>
     <use xlink:href="#mfe13866861" x="205.572313" y="389.685517" style="fill: #ff0000; fill-opacity: 0.4; stroke: #ff0000; stroke-opacity: 0.4"/>
     <use xlink:href="#mfe13866861" x="158.700312" y="422.458097" style="fill: #ff0000; fill-opacity: 0.4; stroke: #ff0000; stroke-opacity: 0.4"/>
     <use xlink:href="#mfe13866861" x="138.612313" y="432.711836" style="fill: #ff0000; fill-opacity: 0.4; stroke: #ff0000; stroke-opacity: 0.4"/>
     <use xlink:href="#mfe13866861" x="58.260313" y="450.514729" style="fill: #ff0000; fill-opacity: 0.4; stroke: #ff0000; stroke-opacity: 0.4"/>
     <use xlink:href="#mfe13866861" x="145.308312" y="430.452988" style="fill: #ff0000; fill-opacity: 0.4; stroke: #ff0000; stroke-opacity: 0.4"/>
     <use xlink:href="#mfe13866861" x="138.612313" y="429.896814" style="fill: #ff0000; fill-opacity: 0.4; stroke: #ff0000; stroke-opacity: 0.4"/>
     <use xlink:href="#mfe13866861" x="218.964313" y="379.698334" style="fill: #ff0000; fill-opacity: 0.4; stroke: #ff0000; stroke-opacity: 0.4"/>
     <use xlink:href="#mfe13866861" x="212.268313" y="387.622705" style="fill: #ff0000; fill-opacity: 0.4; stroke: #ff0000; stroke-opacity: 0.4"/>
     <use xlink:href="#mfe13866861" x="111.828313" y="442.054585" style="fill: #ff0000; fill-opacity: 0.4; stroke: #ff0000; stroke-opacity: 0.4"/>
     <use xlink:href="#mfe13866861" x="131.916313" y="434.090296" style="fill: #ff0000; fill-opacity: 0.4; stroke: #ff0000; stroke-opacity: 0.4"/>
     <use xlink:href="#mfe13866861" x="51.564313" y="450.650889" style="fill: #ff0000; fill-opacity: 0.4; stroke: #ff0000; stroke-opacity: 0.4"/>
     <use xlink:href="#mfe13866861" x="272.532312" y="326.362393" style="fill: #ff0000; fill-opacity: 0.4; stroke: #ff0000; stroke-opacity: 0.4"/>
     <use xlink:href="#mfe13866861" x="205.572313" y="392.875313" style="fill: #ff0000; fill-opacity: 0.4; stroke: #ff0000; stroke-opacity: 0.4"/>
    </g>
   </g>
   <g id="matplotlib.axis_1">
    <g id="xtick_1">
     <g id="line2d_1">
      <defs>
       <path id="m61855b52c0" d="M 0 0 
L 0 -3 
" style="stroke: #000000; stroke-width: 0.5"/>
      </defs>
      <g>
       <use xlink:href="#m61855b52c0" x="41.520313" y="450.919219" style="stroke: #000000; stroke-width: 0.5"/>
      </g>
     </g>
     <g id="line2d_2">
      <defs>
       <path id="m3688d42185" d="M 0 0 
L 0 3 
" style="stroke: #000000; stroke-width: 0.5"/>
      </defs>
      <g>
       <use xlink:href="#m3688d42185" x="41.520313" y="7.399219" style="stroke: #000000; stroke-width: 0.5"/>
      </g>
     </g>
     <g id="text_1">
      <text style="font: 10px 'serif'; text-anchor: middle" x="41.520313" y="462.017656" transform="rotate(-0, 41.520313, 462.017656)">0.0</text>
     </g>
    </g>
    <g id="xtick_2">
     <g id="line2d_3">
      <g>
       <use xlink:href="#m61855b52c0" x="175.440313" y="450.919219" style="stroke: #000000; stroke-width: 0.5"/>
      </g>
     </g>
     <g id="line2d_4">
      <g>
       <use xlink:href="#m3688d42185" x="175.440313" y="7.399219" style="stroke: #000000; stroke-width: 0.5"/>
      </g>
     </g>
     <g id="text_2">
      <text style="font: 10px 'serif'; text-anchor: middle" x="175.440313" y="462.017656" transform="rotate(-0, 175.440313, 462.017656)">0.2</text>
     </g>
    </g>
    <g id="xtick_3">
     <g id="line2d_5">
      <g>
       <use xlink:href="#m61855b52c0" x="309.360313" y="450.919219" style="stroke: #000000; stroke-width: 0.5"/>
      </g>
     </g>
     <g id="line2d_6">
      <g>
       <use xlink:href="#m3688d42185" x="309.360313" y="7.399219" style="stroke: #000000; stroke-width: 0.5"/>
      </g>
     </g>
     <g id="text_3">
      <text style="font: 10px 'serif'; text-anchor: middle" x="309.360313" y="462.017656" transform="rotate(-0, 309.360313, 462.017656)">0.4</text>
     </g>
    </g>
    <g id="xtick_4">
     <g id="line2d_7">
      <g>
       <use xlink:href="#m61855b52c0" x="443.280313" y="450.919219" style="stroke: #000000; stroke-width: 0.5"/>
      </g>
     </g>
     <g id="line2d_8">
      <g>
       <use xlink:href="#m3688d42185" x="443.280313" y="7.399219" style="stroke: #000000; stroke-width: 0.5"/>
      </g>
     </g>
     <g id="text_4">
      <text style="font: 10px 'serif'; text-anchor: middle" x="443.280313" y="462.017656" transform="rotate(-0, 443.280313, 462.017656)">0.6</text>
     </g>
    </g>
    <g id="xtick_5">
     <g id="line2d_9">
      <g>
       <use xlink:href="#m61855b52c0" x="577.200313" y="450.919219" style="stroke: #000000; stroke-width: 0.5"/>
      </g>
     </g>
     <g id="line2d_10">
      <g>
       <use xlink:href="#m3688d42185" x="577.200313" y="7.399219" style="stroke: #000000; stroke-width: 0.5"/>
      </g>
     </g>
     <g id="text_5">
      <text style="font: 10px 'serif'; text-anchor: middle" x="577.200313" y="462.017656" transform="rotate(-0, 577.200313, 462.017656)">0.8</text>
     </g>
    </g>
    <g id="xtick_6">
     <g id="line2d_11">
      <g>
       <use xlink:href="#m61855b52c0" x="711.120313" y="450.919219" style="stroke: #000000; stroke-width: 0.5"/>
      </g>
     </g>
     <g id="line2d_12">
      <g>
       <use xlink:href="#m3688d42185" x="711.120313" y="7.399219" style="stroke: #000000; stroke-width: 0.5"/>
      </g>
     </g>
     <g id="text_6">
      <text style="font: 10px 'serif'; text-anchor: middle" x="711.120313" y="462.017656" transform="rotate(-0, 711.120313, 462.017656)">1.0</text>
     </g>
    </g>
    <g id="xtick_7">
     <g id="line2d_13">
      <defs>
       <path id="m9606e1502d" d="M 0 0 
L 0 -1.5 
" style="stroke: #000000; stroke-width: 0.5"/>
      </defs>
      <g>
       <use xlink:href="#m9606e1502d" x="75.000313" y="450.919219" style="stroke: #000000; stroke-width: 0.5"/>
      </g>
     </g>
     <g id="line2d_14">
      <defs>
       <path id="m36fa55931f" d="M 0 0 
L 0 1.5 
" style="stroke: #000000; stroke-width: 0.5"/>
      </defs>
      <g>
       <use xlink:href="#m36fa55931f" x="75.000313" y="7.399219" style="stroke: #000000; stroke-width: 0.5"/>
      </g>
     </g>
    </g>
    <g id="xtick_8">
     <g id="line2d_15">
      <g>
       <use xlink:href="#m9606e1502d" x="108.480313" y="450.919219" style="stroke: #000000; stroke-width: 0.5"/>
      </g>
     </g>
     <g id="line2d_16">
      <g>
       <use xlink:href="#m36fa55931f" x="108.480313" y="7.399219" style="stroke: #000000; stroke-width: 0.5"/>
      </g>
     </g>
    </g>
    <g id="xtick_9">
     <g id="line2d_17">
      <g>
       <use xlink:href="#m9606e1502d" x="141.960313" y="450.919219" style="stroke: #000000; stroke-width: 0.5"/>
      </g>
     </g>
     <g id="line2d_18">
      <g>
       <use xlink:href="#m36fa55931f" x="141.960313" y="7.399219" style="stroke: #000000; stroke-width: 0.5"/>
      </g>
     </g>
    </g>
    <g id="xtick_10">
     <g id="line2d_19">
      <g>
       <use xlink:href="#m9606e1502d" x="208.920313" y="450.919219" style="stroke: #000000; stroke-width: 0.5"/>
      </g>
     </g>
     <g id="line2d_20">
      <g>
       <use xlink:href="#m36fa55931f" x="208.920313" y="7.399219" style="stroke: #000000; stroke-width: 0.5"/>
      </g>
     </g>
    </g>
    <g id="xtick_11">
     <g id="line2d_21">
      <g>
       <use xlink:href="#m9606e1502d" x="242.400313" y="450.919219" style="stroke: #000000; stroke-width: 0.5"/>
      </g>
     </g>
     <g id="line2d_22">
      <g>
       <use xlink:href="#m36fa55931f" x="242.400313" y="7.399219" style="stroke: #000000; stroke-width: 0.5"/>
      </g>
     </g>
    </g>
    <g id="xtick_12">
     <g id="line2d_23">
      <g>
       <use xlink:href="#m9606e1502d" x="275.880313" y="450.919219" style="stroke: #000000; stroke-width: 0.5"/>
      </g>
     </g>
     <g id="line2d_24">
      <g>
       <use xlink:href="#m36fa55931f" x="275.880313" y="7.399219" style="stroke: #000000; stroke-width: 0.5"/>
      </g>
     </g>
    </g>
    <g id="xtick_13">
     <g id="line2d_25">
      <g>
       <use xlink:href="#m9606e1502d" x="342.840312" y="450.919219" style="stroke: #000000; stroke-width: 0.5"/>
      </g>
     </g>
     <g id="line2d_26">
      <g>
       <use xlink:href="#m36fa55931f" x="342.840312" y="7.399219" style="stroke: #000000; stroke-width: 0.5"/>
      </g>
     </g>
    </g>
    <g id="xtick_14">
     <g id="line2d_27">
      <g>
       <use xlink:href="#m9606e1502d" x="376.320312" y="450.919219" style="stroke: #000000; stroke-width: 0.5"/>
      </g>
     </g>
     <g id="line2d_28">
      <g>
       <use xlink:href="#m36fa55931f" x="376.320312" y="7.399219" style="stroke: #000000; stroke-width: 0.5"/>
      </g>
     </g>
    </g>
    <g id="xtick_15">
     <g id="line2d_29">
      <g>
       <use xlink:href="#m9606e1502d" x="409.800313" y="450.919219" style="stroke: #000000; stroke-width: 0.5"/>
      </g>
     </g>
     <g id="line2d_30">
      <g>
       <use xlink:href="#m36fa55931f" x="409.800313" y="7.399219" style="stroke: #000000; stroke-width: 0.5"/>
      </g>
     </g>
    </g>
    <g id="xtick_16">
     <g id="line2d_31">
      <g>
       <use xlink:href="#m9606e1502d" x="476.760313" y="450.919219" style="stroke: #000000; stroke-width: 0.5"/>
      </g>
     </g>
     <g id="line2d_32">
      <g>
       <use xlink:href="#m36fa55931f" x="476.760313" y="7.399219" style="stroke: #000000; stroke-width: 0.5"/>
      </g>
     </g>
    </g>
    <g id="xtick_17">
     <g id="line2d_33">
      <g>
       <use xlink:href="#m9606e1502d" x="510.240313" y="450.919219" style="stroke: #000000; stroke-width: 0.5"/>
      </g>
     </g>
     <g id="line2d_34">
      <g>
       <use xlink:href="#m36fa55931f" x="510.240313" y="7.399219" style="stroke: #000000; stroke-width: 0.5"/>
      </g>
     </g>
    </g>
    <g id="xtick_18">
     <g id="line2d_35">
      <g>
       <use xlink:href="#m9606e1502d" x="543.720313" y="450.919219" style="stroke: #000000; stroke-width: 0.5"/>
      </g>
     </g>
     <g id="line2d_36">
      <g>
       <use xlink:href="#m36fa55931f" x="543.720313" y="7.399219" style="stroke: #000000; stroke-width: 0.5"/>
      </g>
     </g>
    </g>
    <g id="xtick_19">
     <g id="line2d_37">
      <g>
       <use xlink:href="#m9606e1502d" x="610.680313" y="450.919219" style="stroke: #000000; stroke-width: 0.5"/>
      </g>
     </g>
     <g id="line2d_38">
      <g>
       <use xlink:href="#m36fa55931f" x="610.680313" y="7.399219" style="stroke: #000000; stroke-width: 0.5"/>
      </g>
     </g>
    </g>
    <g id="xtick_20">
     <g id="line2d_39">
      <g>
       <use xlink:href="#m9606e1502d" x="644.160313" y="450.919219" style="stroke: #000000; stroke-width: 0.5"/>
      </g>
     </g>
     <g id="line2d_40">
      <g>
       <use xlink:href="#m36fa55931f" x="644.160313" y="7.399219" style="stroke: #000000; stroke-width: 0.5"/>
      </g>
     </g>
    </g>
    <g id="xtick_21">
     <g id="line2d_41">
      <g>
       <use xlink:href="#m9606e1502d" x="677.640313" y="450.919219" style="stroke: #000000; stroke-width: 0.5"/>
      </g>
     </g>
     <g id="line2d_42">
      <g>
       <use xlink:href="#m36fa55931f" x="677.640313" y="7.399219" style="stroke: #000000; stroke-width: 0.5"/>
      </g>
     </g>
    </g>
    <g id="text_7">
     <text style="font: 15px 'serif'; text-anchor: middle" x="376.320312" y="479.495" transform="rotate(-0, 376.320312, 479.495)">maximum beta</text>
    </g>
   </g>
   <g id="matplotlib.axis_2">
    <g id="ytick_1">
     <g id="line2d_43">
      <defs>
       <path id="m3595c795e9" d="M 0 0 
L 3 0 
" style="stroke: #000000; stroke-width: 0.5"/>
      </defs>
      <g>
       <use xlink:href="#m3595c795e9" x="41.520313" y="450.919219" style="stroke: #000000; stroke-width: 0.5"/>
      </g>
     </g>
     <g id="line2d_44">
      <defs>
       <path id="mb0454766ef" d="M 0 0 
L -3 0 
" style="stroke: #000000; stroke-width: 0.5"/>
      </defs>
      <g>
       <use xlink:href="#mb0454766ef" x="711.120313" y="450.919219" style="stroke: #000000; stroke-width: 0.5"/>
      </g>
     </g>
     <g id="text_8">
      <text style="font: 10px 'serif'; text-anchor: end" x="38.020313" y="454.718437" transform="rotate(-0, 38.020313, 454.718437)">0.0</text>
     </g>
    </g>
    <g id="ytick_2">
     <g id="line2d_45">
      <g>
       <use xlink:href="#m3595c795e9" x="41.520313" y="362.215219" style="stroke: #000000; stroke-width: 0.5"/>
      </g>
     </g>
     <g id="line2d_46">
      <g>
       <use xlink:href="#mb0454766ef" x="711.120313" y="362.215219" style="stroke: #000000; stroke-width: 0.5"/>
      </g>
     </g>
     <g id="text_9">
      <text style="font: 10px 'serif'; text-anchor: end" x="38.020313" y="366.014437" transform="rotate(-0, 38.020313, 366.014437)">0.2</text>
     </g>
    </g>
    <g id="ytick_3">
     <g id="line2d_47">
      <g>
       <use xlink:href="#m3595c795e9" x="41.520313" y="273.511219" style="stroke: #000000; stroke-width: 0.5"/>
      </g>
     </g>
     <g id="line2d_48">
      <g>
       <use xlink:href="#mb0454766ef" x="711.120313" y="273.511219" style="stroke: #000000; stroke-width: 0.5"/>
      </g>
     </g>
     <g id="text_10">
      <text style="font: 10px 'serif'; text-anchor: end" x="38.020313" y="277.310437" transform="rotate(-0, 38.020313, 277.310437)">0.4</text>
     </g>
    </g>
    <g id="ytick_4">
     <g id="line2d_49">
      <g>
       <use xlink:href="#m3595c795e9" x="41.520313" y="184.807219" style="stroke: #000000; stroke-width: 0.5"/>
      </g>
     </g>
     <g id="line2d_50">
      <g>
       <use xlink:href="#mb0454766ef" x="711.120313" y="184.807219" style="stroke: #000000; stroke-width: 0.5"/>
      </g>
     </g>
     <g id="text_11">
      <text style="font: 10px 'serif'; text-anchor: end" x="38.020313" y="188.606437" transform="rotate(-0, 38.020313, 188.606437)">0.6</text>
     </g>
    </g>
    <g id="ytick_5">
     <g id="line2d_51">
      <g>
       <use xlink:href="#m3595c795e9" x="41.520313" y="96.103219" style="stroke: #000000; stroke-width: 0.5"/>
      </g>
     </g>
     <g id="line2d_52">
      <g>
       <use xlink:href="#mb0454766ef" x="711.120313" y="96.103219" style="stroke: #000000; stroke-width: 0.5"/>
      </g>
     </g>
     <g id="text_12">
      <text style="font: 10px 'serif'; text-anchor: end" x="38.020313" y="99.902437" transform="rotate(-0, 38.020313, 99.902437)">0.8</text>
     </g>
    </g>
    <g id="ytick_6">
     <g id="line2d_53">
      <g>
       <use xlink:href="#m3595c795e9" x="41.520313" y="7.399219" style="stroke: #000000; stroke-width: 0.5"/>
      </g>
     </g>
     <g id="line2d_54">
      <g>
       <use xlink:href="#mb0454766ef" x="711.120313" y="7.399219" style="stroke: #000000; stroke-width: 0.5"/>
      </g>
     </g>
     <g id="text_13">
      <text style="font: 10px 'serif'; text-anchor: end" x="38.020313" y="11.198438" transform="rotate(-0, 38.020313, 11.198438)">1.0</text>
     </g>
    </g>
    <g id="ytick_7">
     <g id="line2d_55">
      <defs>
       <path id="me93addc185" d="M 0 0 
L 1.5 0 
" style="stroke: #000000; stroke-width: 0.5"/>
      </defs>
      <g>
       <use xlink:href="#me93addc185" x="41.520313" y="428.743219" style="stroke: #000000; stroke-width: 0.5"/>
      </g>
     </g>
     <g id="line2d_56">
      <defs>
       <path id="m954f2af371" d="M 0 0 
L -1.5 0 
" style="stroke: #000000; stroke-width: 0.5"/>
      </defs>
      <g>
       <use xlink:href="#m954f2af371" x="711.120313" y="428.743219" style="stroke: #000000; stroke-width: 0.5"/>
      </g>
     </g>
    </g>
    <g id="ytick_8">
     <g id="line2d_57">
      <g>
       <use xlink:href="#me93addc185" x="41.520313" y="406.567219" style="stroke: #000000; stroke-width: 0.5"/>
      </g>
     </g>
     <g id="line2d_58">
      <g>
       <use xlink:href="#m954f2af371" x="711.120313" y="406.567219" style="stroke: #000000; stroke-width: 0.5"/>
      </g>
     </g>
    </g>
    <g id="ytick_9">
     <g id="line2d_59">
      <g>
       <use xlink:href="#me93addc185" x="41.520313" y="384.391219" style="stroke: #000000; stroke-width: 0.5"/>
      </g>
     </g>
     <g id="line2d_60">
      <g>
       <use xlink:href="#m954f2af371" x="711.120313" y="384.391219" style="stroke: #000000; stroke-width: 0.5"/>
      </g>
     </g>
    </g>
    <g id="ytick_10">
     <g id="line2d_61">
      <g>
       <use xlink:href="#me93addc185" x="41.520313" y="340.039219" style="stroke: #000000; stroke-width: 0.5"/>
      </g>
     </g>
     <g id="line2d_62">
      <g>
       <use xlink:href="#m954f2af371" x="711.120313" y="340.039219" style="stroke: #000000; stroke-width: 0.5"/>
      </g>
     </g>
    </g>
    <g id="ytick_11">
     <g id="line2d_63">
      <g>
       <use xlink:href="#me93addc185" x="41.520313" y="317.863219" style="stroke: #000000; stroke-width: 0.5"/>
      </g>
     </g>
     <g id="line2d_64">
      <g>
       <use xlink:href="#m954f2af371" x="711.120313" y="317.863219" style="stroke: #000000; stroke-width: 0.5"/>
      </g>
     </g>
    </g>
    <g id="ytick_12">
     <g id="line2d_65">
      <g>
       <use xlink:href="#me93addc185" x="41.520313" y="295.687219" style="stroke: #000000; stroke-width: 0.5"/>
      </g>
     </g>
     <g id="line2d_66">
      <g>
       <use xlink:href="#m954f2af371" x="711.120313" y="295.687219" style="stroke: #000000; stroke-width: 0.5"/>
      </g>
     </g>
    </g>
    <g id="ytick_13">
     <g id="line2d_67">
      <g>
       <use xlink:href="#me93addc185" x="41.520313" y="251.335219" style="stroke: #000000; stroke-width: 0.5"/>
      </g>
     </g>
     <g id="line2d_68">
      <g>
       <use xlink:href="#m954f2af371" x="711.120313" y="251.335219" style="stroke: #000000; stroke-width: 0.5"/>
      </g>
     </g>
    </g>
    <g id="ytick_14">
     <g id="line2d_69">
      <g>
       <use xlink:href="#me93addc185" x="41.520313" y="229.159219" style="stroke: #000000; stroke-width: 0.5"/>
      </g>
     </g>
     <g id="line2d_70">
      <g>
       <use xlink:href="#m954f2af371" x="711.120313" y="229.159219" style="stroke: #000000; stroke-width: 0.5"/>
      </g>
     </g>
    </g>
    <g id="ytick_15">
     <g id="line2d_71">
      <g>
       <use xlink:href="#me93addc185" x="41.520313" y="206.983219" style="stroke: #000000; stroke-width: 0.5"/>
      </g>
     </g>
     <g id="line2d_72">
      <g>
       <use xlink:href="#m954f2af371" x="711.120313" y="206.983219" style="stroke: #000000; stroke-width: 0.5"/>
      </g>
     </g>
    </g>
    <g id="ytick_16">
     <g id="line2d_73">
      <g>
       <use xlink:href="#me93addc185" x="41.520313" y="162.631219" style="stroke: #000000; stroke-width: 0.5"/>
      </g>
     </g>
     <g id="line2d_74">
      <g>
       <use xlink:href="#m954f2af371" x="711.120313" y="162.631219" style="stroke: #000000; stroke-width: 0.5"/>
      </g>
     </g>
    </g>
    <g id="ytick_17">
     <g id="line2d_75">
      <g>
       <use xlink:href="#me93addc185" x="41.520313" y="140.455219" style="stroke: #000000; stroke-width: 0.5"/>
      </g>
     </g>
     <g id="line2d_76">
      <g>
       <use xlink:href="#m954f2af371" x="711.120313" y="140.455219" style="stroke: #000000; stroke-width: 0.5"/>
      </g>
     </g>
    </g>
    <g id="ytick_18">
     <g id="line2d_77">
      <g>
       <use xlink:href="#me93addc185" x="41.520313" y="118.279219" style="stroke: #000000; stroke-width: 0.5"/>
      </g>
     </g>
     <g id="line2d_78">
      <g>
       <use xlink:href="#m954f2af371" x="711.120313" y="118.279219" style="stroke: #000000; stroke-width: 0.5"/>
      </g>
     </g>
    </g>
    <g id="ytick_19">
     <g id="line2d_79">
      <g>
       <use xlink:href="#me93addc185" x="41.520313" y="73.927219" style="stroke: #000000; stroke-width: 0.5"/>
      </g>
     </g>
     <g id="line2d_80">
      <g>
       <use xlink:href="#m954f2af371" x="711.120313" y="73.927219" style="stroke: #000000; stroke-width: 0.5"/>
      </g>
     </g>
    </g>
    <g id="ytick_20">
     <g id="line2d_81">
      <g>
       <use xlink:href="#me93addc185" x="41.520313" y="51.751219" style="stroke: #000000; stroke-width: 0.5"/>
      </g>
     </g>
     <g id="line2d_82">
      <g>
       <use xlink:href="#m954f2af371" x="711.120313" y="51.751219" style="stroke: #000000; stroke-width: 0.5"/>
      </g>
     </g>
    </g>
    <g id="ytick_21">
     <g id="line2d_83">
      <g>
       <use xlink:href="#me93addc185" x="41.520313" y="29.575219" style="stroke: #000000; stroke-width: 0.5"/>
      </g>
     </g>
     <g id="line2d_84">
      <g>
       <use xlink:href="#m954f2af371" x="711.120313" y="29.575219" style="stroke: #000000; stroke-width: 0.5"/>
      </g>
     </g>
    </g>
    <g id="text_14">
     <text style="font: 15px 'serif'; text-anchor: middle" x="14.997656" y="229.159219" transform="rotate(-90, 14.997656, 229.159219)">maximum alpha</text>
    </g>
   </g>
   <g id="line2d_85">
    <path d="M 41.520313 450.919219 
L 48.283949 446.439219 
L 55.047585 441.959219 
L 61.811222 437.479219 
L 68.574858 432.999219 
L 75.338494 428.519219 
L 82.102131 424.039219 
L 88.865767 419.559219 
L 95.629403 415.079219 
L 102.39304 410.599219 
L 109.156676 406.119219 
L 115.920313 401.639219 
L 122.683949 397.159219 
L 129.447585 392.679219 
L 136.211222 388.199219 
L 142.974858 383.719219 
L 149.738494 379.239219 
L 156.502131 374.759219 
L 163.265767 370.279219 
L 170.029403 365.799219 
L 176.79304 361.319219 
L 183.556676 356.839219 
L 190.320313 352.359219 
L 197.083949 347.879219 
L 203.847585 343.399219 
L 210.611222 338.919219 
L 217.374858 334.439219 
L 224.138494 329.959219 
L 230.902131 325.479219 
L 237.665767 320.999219 
L 244.429403 316.519219 
L 251.19304 312.039219 
L 257.956676 307.559219 
L 264.720313 303.079219 
L 271.483949 298.599219 
L 278.247585 294.119219 
L 285.011222 289.639219 
L 291.774858 285.159219 
L 298.538494 280.679219 
L 305.302131 276.199219 
L 312.065767 271.719219 
L 318.829403 267.239219 
L 325.59304 262.759219 
L 332.356676 258.279219 
L 339.120313 253.799219 
L 345.883949 249.319219 
L 352.647585 244.839219 
L 359.411222 240.359219 
L 366.174858 235.879219 
L 372.938494 231.399219 
L 379.702131 226.919219 
L 386.465767 222.439219 
L 393.229403 217.959219 
L 399.99304 213.479219 
L 406.756676 208.999219 
L 413.520313 204.519219 
L 420.283949 200.039219 
L 427.047585 195.559219 
L 433.811222 191.079219 
L 440.574858 186.599219 
L 447.338494 182.119219 
L 454.102131 177.639219 
L 460.865767 173.159219 
L 467.629403 168.679219 
L 474.39304 164.199219 
L 481.156676 159.719219 
L 487.920313 155.239219 
L 494.683949 150.759219 
L 501.447585 146.279219 
L 508.211222 141.799219 
L 514.974858 137.319219 
L 521.738494 132.839219 
L 528.502131 128.359219 
L 535.265767 123.879219 
L 542.029403 119.399219 
L 548.79304 114.919219 
L 555.556676 110.439219 
L 562.320313 105.959219 
L 569.083949 101.479219 
L 575.847585 96.999219 
L 582.611222 92.519219 
L 589.374858 88.039219 
L 596.138494 83.559219 
L 602.902131 79.079219 
L 609.665767 74.599219 
L 616.429403 70.119219 
L 623.19304 65.639219 
L 629.956676 61.159219 
L 636.720313 56.679219 
L 643.483949 52.199219 
L 650.247585 47.719219 
L 657.011222 43.239219 
L 663.774858 38.759219 
L 670.538494 34.279219 
L 677.302131 29.799219 
L 684.065767 25.319219 
L 690.829403 20.839219 
L 697.59304 16.359219 
L 704.356676 11.879219 
L 711.120313 7.399219 
" clip-path="url(#p50164dac6f)" style="fill: none; stroke-dasharray: 10,10; stroke-dashoffset: 0; stroke: #808080; stroke-opacity: 0.4"/>
   </g>
   <g id="line2d_86">
    <path d="M 41.520313 467.727889 
L 48.283949 465.602077 
L 55.047585 463.379528 
L 61.811222 461.060241 
L 68.574858 458.644217 
L 75.338494 456.131455 
L 82.102131 453.521956 
L 88.865767 450.815719 
L 95.629403 448.012746 
L 102.39304 445.113034 
L 109.156676 442.116586 
L 115.920313 439.0234 
L 122.683949 435.833476 
L 129.447585 432.546815 
L 136.211222 429.163417 
L 142.974858 425.683282 
L 149.738494 422.106409 
L 156.502131 418.432798 
L 163.265767 414.66245 
L 170.029403 410.795365 
L 176.79304 406.831543 
L 183.556676 402.770983 
L 190.320313 398.613685 
L 197.083949 394.359651 
L 203.847585 390.008878 
L 210.611222 385.561369 
L 217.374858 381.017122 
L 224.138494 376.376138 
L 230.902131 371.638416 
L 237.665767 366.803957 
L 244.429403 361.87276 
L 251.19304 356.844826 
L 257.956676 351.720155 
L 264.720313 346.498746 
L 271.483949 341.1806 
L 278.247585 335.765717 
L 285.011222 330.254096 
L 291.774858 324.645738 
L 298.538494 318.940642 
L 305.302131 313.138809 
L 312.065767 307.240239 
L 318.829403 301.244931 
L 325.59304 295.152886 
L 332.356676 288.964103 
L 339.120313 282.678583 
L 345.883949 276.296326 
L 352.647585 269.817331 
L 359.411222 263.241599 
L 366.174858 256.569129 
L 372.938494 249.799922 
L 379.702131 242.933978 
L 386.465767 235.971296 
L 393.229403 228.911877 
L 399.99304 221.755721 
L 406.756676 214.502827 
L 413.520313 207.153195 
L 420.283949 199.706827 
L 427.047585 192.163721 
L 433.811222 184.523877 
L 440.574858 176.787296 
L 447.338494 168.953978 
L 454.102131 161.023922 
L 460.865767 152.997129 
L 467.629403 144.873599 
L 474.39304 136.653331 
L 481.156676 128.336326 
L 487.920313 119.922583 
L 494.683949 111.412103 
L 501.447585 102.804886 
L 508.211222 94.100931 
L 514.974858 85.300239 
L 521.738494 76.402809 
L 528.502131 67.408642 
L 535.265767 58.317738 
L 542.029403 49.130096 
L 548.79304 39.845717 
L 555.556676 30.4646 
L 562.320313 20.986746 
L 569.083949 11.412155 
L 575.847585 1.740826 
L 577.745397 -1 
" clip-path="url(#p50164dac6f)" style="fill: none; stroke: #008000; stroke-linecap: square"/>
   </g>
   <g id="patch_3">
    <path d="M 41.520313 450.919219 
L 41.520313 7.399219 
" style="fill: none; stroke: #000000; stroke-width: 0.5; stroke-linejoin: miter; stroke-linecap: square"/>
   </g>
   <g id="patch_4">
    <path d="M 711.120313 450.919219 
L 711.120313 7.399219 
" style="fill: none; stroke: #000000; stroke-width: 0.5; stroke-linejoin: miter; stroke-linecap: square"/>
   </g>
   <g id="patch_5">
    <path d="M 41.520313 450.919219 
L 711.120313 450.919219 
" style="fill: none; stroke: #000000; stroke-width: 0.5; stroke-linejoin: miter; stroke-linecap: square"/>
   </g>
   <g id="patch_6">
    <path d="M 41.520313 7.399219 
L 711.120313 7.399219 
" style="fill: none; stroke: #000000; stroke-width: 0.5; stroke-linejoin: miter; stroke-linecap: square"/>
   </g>
   <g id="legend_1">
    <g id="line2d_87">
     <defs>
      <path id="m0ddac976cc" d="M 0 5 
C 1.326016 5 2.597899 4.473168 3.535534 3.535534 
C 4.473168 2.597899 5 1.326016 5 0 
C 5 -1.326016 4.473168 -2.597899 3.535534 -3.535534 
C 2.597899 -4.473168 1.326016 -5 0 -5 
C -1.326016 -5 -2.597899 -4.473168 -3.535534 -3.535534 
C -4.473168 -2.597899 -5 -1.326016 -5 0 
C -5 1.326016 -4.473168 2.597899 -3.535534 3.535534 
C -2.597899 4.473168 -1.326016 5 0 5 
z
" style="stroke: #0000ff; stroke-opacity: 0.4"/>
     </defs>
     <g>
      <use xlink:href="#m0ddac976cc" x="66.220313" y="24.427187" style="fill: #0000ff; fill-opacity: 0.4; stroke: #0000ff; stroke-opacity: 0.4"/>
     </g>
    </g>
    <g id="text_15">
     <text style="font: 13px 'serif'; text-anchor: start" x="89.620313" y="28.977187" transform="rotate(-0, 89.620313, 28.977187)">Weighted</text>
    </g>
    <g id="line2d_88">
     <defs>
      <path id="mfe0db403fa" d="M 0 5 
C 1.326016 5 2.597899 4.473168 3.535534 3.535534 
C 4.473168 2.597899 5 1.326016 5 0 
C 5 -1.326016 4.473168 -2.597899 3.535534 -3.535534 
C 2.597899 -4.473168 1.326016 -5 0 -5 
C -1.326016 -5 -2.597899 -4.473168 -3.535534 -3.535534 
C -4.473168 -2.597899 -5 -1.326016 -5 0 
C -5 1.326016 -4.473168 2.597899 -3.535534 3.535534 
C -2.597899 4.473168 -1.326016 5 0 5 
z
" style="stroke: #ff0000; stroke-opacity: 0.4"/>
     </defs>
     <g>
      <use xlink:href="#mfe0db403fa" x="66.220313" y="43.50875" style="fill: #ff0000; fill-opacity: 0.4; stroke: #ff0000; stroke-opacity: 0.4"/>
     </g>
    </g>
    <g id="text_16">
     <text style="font: 13px 'serif'; text-anchor: start" x="89.620313" y="48.05875" transform="rotate(-0, 89.620313, 48.05875)">Unweighted</text>
    </g>
    <g id="line2d_89">
     <path d="M 53.220313 62.590312 
L 66.220313 62.590312 
L 79.220313 62.590312 
" style="fill: none; stroke-dasharray: 10,10; stroke-dashoffset: 0; stroke: #808080; stroke-opacity: 0.4"/>
    </g>
    <g id="text_17">
     <text style="font: 13px 'serif'; text-anchor: start" x="89.620313" y="67.140312" transform="rotate(-0, 89.620313, 67.140312)">alpha = beta</text>
    </g>
    <g id="line2d_90">
     <path d="M 53.220313 81.671875 
L 66.220313 81.671875 
L 79.220313 81.671875 
" style="fill: none; stroke: #008000; stroke-linecap: square"/>
    </g>
    <g id="text_18">
     <text style="font: 13px 'serif'; text-anchor: start" x="89.620313" y="86.221875" transform="rotate(-0, 89.620313, 86.221875)">Quadratic fit: alpha = 1.014 beta^2 + 0.492 beta - 0.041</text>
    </g>
   </g>
  </g>
 </g>
 <defs>
  <clipPath id="p50164dac6f">
   <rect x="41.520313" y="7.399219" width="669.6" height="443.52"/>
  </clipPath>
 </defs>
</svg>
